# xmcd
#
# Track frame offsets:
# 150
# 14663
# 29078
# 44026
# 58647
# 78350
# 95916
# 114250
# 131920
# 146431
#
# Disc length: 2155 seconds
#
#
# Revision: 0
# Processed by: cddbd v1.5PL3 Copyright (c) Steve Scherf et al.
# Submitted via: FreeRIP 2.53 
#
DISCID=9308690a
DTITLE=Faith Hill - It Matters To Me
DYEAR=1900
DGENRE=
TTITLE0=Someone Else's Dream
TTITLE1=Let's Go To Las Vegas
TTITLE2=It Matters To Me
TTITLE3=Bed Of Roses
TTITLE4=A Man's Home Is His Castle
TTITLE5=You Can't Lose Me
TTITLE6=I Can't Do That Anymore
TTITLE7=A Room In My Heart
TTITLE8=You Will Be Mine
TTITLE9=Keep Walkin' On (Duet with Shelby Lynne)
EXTD=
EXTT0=
EXTT1=
EXTT2=
EXTT3=
EXTT4=
EXTT5=
EXTT6=
EXTT7=
EXTT8=
EXTT9=
PLAYORDER=
